<?xml version="1.0" encoding="UTF-8"?>
<svg width="29px" height="28px" viewBox="0 0 29 28" version="1.1" xmlns="http://www.w3.org/2000/svg" xmlns:xlink="http://www.w3.org/1999/xlink">
    <!-- Generator: Sketch 52.3 (67297) - http://www.bohemiancoding.com/sketch -->
    <title>Logo</title>
    <desc>Created with Sketch.</desc>
    <g id="-" stroke="none" stroke-width="1" fill="none" fill-rule="evenodd">
        <g id="03-1-1-Profile" transform="translate(-43.000000, -39.000000)" fill="#323C46">
            <g id="Header" transform="translate(43.000000, 31.000000)">
                <g id="Logo" transform="translate(0.000000, 8.000000)">
                    <path d="M0.078,27 L0.078,0.058 L16.95,0.058 L16.95,4.998 L5.322,4.998 L5.322,11.154 L15.848,11.154 L15.848,15.828 L5.322,15.828 L5.322,22.06 L16.95,22.06 L16.95,27 L0.078,27 Z M21.548,23.808 C21.548,22.8453285 21.8836633,22.0283367 22.555,21.357 C23.2263367,20.6856633 24.0433285,20.35 25.006,20.35 C25.4873357,20.35 25.9433312,20.4386658 26.374,20.616 C26.8046688,20.7933342 27.1783317,21.0403317 27.495,21.357 C27.8116682,21.6736682 28.0586658,22.0409979 28.236,22.459 C28.4133342,22.8770021 28.502,23.3266643 28.502,23.808 C28.502,24.2893357 28.4133342,24.7389979 28.236,25.157 C28.0586658,25.5750021 27.8116682,25.9423317 27.495,26.259 C27.1783317,26.5756682 26.8046688,26.8226658 26.374,27 C25.9433312,27.1773342 25.4873357,27.266 25.006,27.266 C24.0433285,27.266 23.2263367,26.9303367 22.555,26.259 C21.8836633,25.5876633 21.548,24.7706715 21.548,23.808 Z" id="E."></path>
                </g>
            </g>
        </g>
    </g>
</svg>